<svg xmlns="http://www.w3.org/2000/svg" width="512" height="512" viewBox="0 0 512 512" fill="none">
  <!-- Background rounded square -->
  <rect width="512" height="512" rx="96" fill="#0B0D17"/>
  <!-- Gamepad2 icon centered and scaled -->
  <g transform="translate(52, 52) scale(17)" stroke="#F97316" stroke-width="2" stroke-linecap="round" stroke-linejoin="round" fill="none">
    <!-- D-pad horizontal -->
    <line x1="6" x2="10" y1="11" y2="11"/>
    <!-- D-pad vertical -->
    <line x1="8" x2="8" y1="9" y2="13"/>
    <!-- Button dots -->
    <line x1="15" x2="15.01" y1="12" y2="12"/>
    <line x1="18" x2="18.01" y1="10" y2="10"/>
    <!-- Controller body -->
    <path d="M17.32 5H6.68a4 4 0 0 0-3.978 3.59c-.006.052-.01.101-.017.152C2.604 9.416 2 14.456 2 16a3 3 0 0 0 3 3c1.653 0 2.855-1.492 3.66-3.275.146-.324.486-.525.842-.525h4.996c.356 0 .696.201.842.525C16.145 17.508 17.347 19 19 19a3 3 0 0 0 3-3c0-1.545-.604-6.584-.685-7.258-.007-.05-.011-.1-.017-.151A4 4 0 0 0 17.32 5z"/>
  </g>
</svg>
